<svg width="10" height="8" viewBox="0 0 10 8" fill="none" xmlns="http://www.w3.org/2000/svg">
<path d="M10 7H7.77778V8H10V7Z" fill="black"/>
<path d="M8.88889 6H6.66667V7H8.88889V6Z" fill="black"/>
<path d="M7.77778 5H5.55556V6H7.77778V5Z" fill="black"/>
<path d="M0 7H2.22222V8H0V7Z" fill="black"/>
<path d="M1.11111 6H3.33333V7H1.11111V6Z" fill="black"/>
<path d="M2.22222 5H4.44444V6H2.22222V5Z" fill="black"/>
<path d="M0 1L2.22222 1V3.49691e-07L9.71366e-08 1.74846e-07L0 1Z" fill="black"/>
<path d="M1.11111 2H3.33333V1L1.11111 1L1.11111 2Z" fill="black"/>
<path d="M2.22222 3H4.44444V2H2.22222V3Z" fill="black"/>
<path d="M3.33333 5L6.66667 5V3L3.33333 3L3.33333 5Z" fill="black"/>
<path d="M10 1L7.77778 1V0L10 1.74846e-07V1Z" fill="black"/>
<path d="M8.88889 2L6.66667 2V1L8.88889 1V2Z" fill="black"/>
<path d="M7.77778 3L5.55556 3V2L7.77778 2V3Z" fill="black"/>
</svg>
