<svg width="256" height="256" viewBox="0 0 256 256" fill="none" xmlns="http://www.w3.org/2000/svg">
<rect x="51.2002" y="147.2" width="19.2" height="57.6" fill="#D9D9D9"/>
<rect x="70.3999" y="166.4" width="19.2" height="57.6" fill="#D9D9D9"/>
<rect x="89.6001" y="185.6" width="19.2" height="19.2" fill="#D9D9D9"/>
<rect x="32" y="166.4" width="19.2" height="19.2" fill="#D9D9D9"/>
<rect x="108.8" y="185.6" width="19.2" height="19.2" fill="#545454"/>
<rect x="185.6" y="51.2" width="19.2" height="19.2" fill="#ACACAC"/>
<rect x="166.4" y="70.4" width="19.2" height="19.2" fill="#ACACAC"/>
<rect x="128" y="51.2" width="19.2" height="19.2" fill="#ACACAC"/>
<rect x="166.4" y="32" width="19.2" height="19.2" fill="#ACACAC"/>
<rect x="166.4" y="147.2" width="19.2" height="19.2" fill="white"/>
<rect x="147.2" y="89.6" width="19.2" height="19.2" fill="#ACACAC"/>
<rect x="185.6" y="89.6" width="19.2" height="19.2" fill="#ACACAC"/>
<rect x="204.8" y="128" width="19.2" height="19.2" fill="#ACACAC"/>
<rect x="108.8" y="89.6" width="19.2" height="19.2" fill="#ACACAC"/>
<rect x="108.8" y="128" width="19.2" height="19.2" fill="#ACACAC"/>
<rect x="108.8" y="166.4" width="19.2" height="19.2" fill="#ACACAC"/>
<rect x="70.3999" y="128" width="19.2" height="19.2" fill="#ACACAC"/>
<rect x="89.6001" y="204.8" width="19.2" height="19.2" fill="#545454"/>
<rect x="51.2002" y="204.8" width="19.2" height="19.2" fill="#545454"/>
<rect x="89.6001" y="108.8" width="76.8" height="19.2" fill="#545454"/>
<rect x="89.6001" y="147.2" width="19.2" height="19.2" fill="#545454"/>
<rect x="128" y="128" width="19.2" height="19.2" fill="#545454"/>
<rect x="166.4" y="51.2" width="19.2" height="19.2" fill="#545454"/>
<rect x="166.4" y="89.6" width="19.2" height="19.2" fill="#545454"/>
<rect x="108.8" y="70.4" width="38.4" height="19.2" fill="#545454"/>
<rect x="204.8" y="89.6" width="19.2" height="38.4" fill="#545454"/>
<rect x="70.3999" y="51.2" width="19.2" height="38.4" fill="#545454"/>
<rect x="147.2" y="147.2" width="19.2" height="38.4" fill="#545454"/>
<rect x="185.6" y="108.8" width="19.2" height="57.6" fill="#545454"/>
<rect x="166.4" y="204.8" width="19.2" height="38.4" transform="rotate(-90 166.4 204.8)" fill="#545454"/>
<rect x="51.2002" y="128" width="19.2" height="19.2" fill="#545454"/>
<rect x="32" y="147.2" width="19.2" height="19.2" fill="#545454"/>
<rect x="32" y="185.6" width="19.2" height="19.2" fill="#545454"/>
</svg>
