<svg width="256" height="256" viewBox="0 0 256 256" fill="none" xmlns="http://www.w3.org/2000/svg">
<path d="M122.62 42.9019C124.82 38.4425 131.18 38.4424 133.38 42.9019L154.818 86.3385C155.692 88.1094 157.381 89.3368 159.335 89.6208L207.27 96.5862C212.192 97.3013 214.157 103.349 210.596 106.82L175.91 140.631C174.495 142.009 173.85 143.995 174.184 145.942L182.372 193.683C183.213 198.585 178.068 202.322 173.667 200.008L130.792 177.468C129.044 176.549 126.956 176.549 125.208 177.468L82.3335 200.008C77.9317 202.322 72.7871 198.585 73.6278 193.683L81.8161 145.942C82.1499 143.995 81.5046 142.009 80.0905 140.631L45.4043 106.82C41.8432 103.349 43.8082 97.3013 48.7296 96.5862L96.6647 89.6208C98.619 89.3368 100.308 88.1094 101.182 86.3385L122.62 42.9019Z" fill="white"/>
</svg>
