<svg width="256" height="256" viewBox="0 0 256 256" fill="none" xmlns="http://www.w3.org/2000/svg">
<rect x="91" y="153" width="24" height="24" fill="#BABABA"/>
<rect x="115" y="153" width="25" height="24" fill="#E8E8E8"/>
<rect x="140" y="153" width="24" height="24" fill="#E8E8E8"/>
<rect x="164" y="153" width="25" height="24" fill="#E8E8E8"/>
<rect x="66" y="153" width="25" height="24" fill="#E8E8E8"/>
<rect x="42" y="153" width="24" height="24" fill="#E8E8E8"/>
<rect x="42" y="128" width="24" height="25" fill="#B9B9B9"/>
<rect x="66" y="128" width="25" height="25" fill="#E8E8E8"/>
<rect x="91" y="128" width="24" height="25" fill="#E8E8E8"/>
<rect x="91" y="104" width="24" height="24" fill="#D8D8D8"/>
<rect x="115" y="104" width="25" height="24" fill="#E8E8E8"/>
<rect x="115" y="128" width="25" height="25" fill="#E8E8E8"/>
<rect x="140" y="128" width="24" height="25" fill="#C6C6C6"/>
<rect x="164" y="128" width="25" height="25" fill="#E8E8E8"/>
<rect x="140" y="104" width="24" height="24" fill="#E8E8E8"/>
<rect x="115" y="79" width="25" height="25" fill="#A9A9A9"/>
<rect x="189" y="128" width="24" height="25" fill="#E8E8E8"/>
<rect x="164" y="104" width="25" height="24" fill="#C6C6C6"/>
<rect x="17" y="153" width="25" height="24" fill="#D8D8D8"/>
<rect x="189" y="153" width="24" height="24" fill="#B7B7B7"/>
<rect x="213" y="153" width="25" height="24" fill="#E8E8E8"/>
</svg>
