<svg width="256" height="256" viewBox="0 0 256 256" fill="none" xmlns="http://www.w3.org/2000/svg">
<path d="M174.96 209.258C160.716 217.482 144.557 221.811 128.109 221.811C111.661 221.811 95.5022 217.482 81.2576 209.258L109.368 160.568C115.066 163.858 121.53 165.59 128.109 165.59C134.688 165.59 141.152 163.858 146.849 160.568L174.96 209.258Z" fill="white"/>
<path d="M34.2975 128C34.2975 111.552 38.6271 95.3933 46.8513 81.1487C55.0754 66.9042 66.9042 55.0754 81.1488 46.8513L109.26 95.5405C103.562 98.8301 98.8301 103.562 95.5405 109.259C92.2509 114.957 90.519 121.421 90.519 128L34.2975 128Z" fill="white"/>
<path d="M174.851 46.8513C189.096 55.0754 200.925 66.9042 209.149 81.1488C217.373 95.3933 221.702 111.552 221.703 128L165.481 128C165.481 121.421 163.749 114.957 160.46 109.259C157.17 103.562 152.438 98.8301 146.74 95.5405L174.851 46.8513Z" fill="white"/>
<circle cx="128.109" cy="128.109" r="23.4256" fill="white"/>
</svg>
