<svg width="512" height="512" viewBox="0 0 512 512" fill="none" xmlns="http://www.w3.org/2000/svg">
<path d="M187.733 111.333H324.267V418.533H187.733V111.333Z" fill="white"/>
<path d="M102.4 247.867H409.6V418.533H102.4V247.867Z" fill="white"/>
<path d="M170.667 230.8H341.333V247.867H170.667V230.8Z" fill="white"/>
<path d="M85.3333 384.4H426.667V418.533H85.3333V384.4Z" fill="white"/>
<rect x="34.1333" y="435.6" width="443.733" height="34.1333" fill="#FA4032"/>
<rect width="443.733" height="17.0667" transform="matrix(1 0 0 -1 34.1333 486.8)" fill="#C84032"/>
<rect width="341.333" height="17.0667" transform="matrix(1 0 0 -1 85.3333 435.6)" fill="#C84032"/>
<rect x="238.933" y="350.267" width="34.1333" height="34.1333" fill="#738794"/>
<rect x="273.067" y="350.267" width="17.0667" height="34.1333" fill="#524B62"/>
<rect x="273.067" y="213.733" width="17.0667" height="85.3333" fill="#524B62"/>
<rect x="221.867" y="213.733" width="17.0667" height="85.3333" fill="#524B62"/>
<rect x="238.933" y="213.733" width="34.1333" height="85.3333" fill="#738794"/>
<rect x="221.867" y="350.267" width="17.0667" height="34.1333" fill="#524B62"/>
<rect x="238.933" y="333.2" width="34.1333" height="17.0667" fill="#524B62"/>
<rect x="238.933" y="384.4" width="34.1333" height="17.0667" fill="#524B62"/>
<rect x="238.933" y="196.667" width="34.1333" height="17.0667" fill="#524B62"/>
<rect x="238.933" y="299.067" width="34.1333" height="17.0667" fill="#524B62"/>
<rect x="17.0667" y="418.533" width="68.2667" height="34.1333" fill="#FA4032"/>
<rect x="17.0667" y="452.667" width="17.0667" height="17.0667" fill="#C84032"/>
<rect x="17.0667" y="367.333" width="17.0667" height="17.0667" fill="#C84032"/>
<rect x="68.2666" y="282" width="17.0667" height="17.0667" fill="#C84032"/>
<rect x="119.467" y="196.667" width="17.0667" height="17.0667" fill="#C84032"/>
<rect x="170.667" y="111.333" width="17.0667" height="17.0667" fill="#C84032"/>
<rect x="221.867" y="26" width="34.1333" height="17.0667" fill="#C84032"/>
<rect x="34.1333" y="333.2" width="17.0667" height="34.1333" fill="#C84032"/>
<rect x="51.2" y="299.067" width="17.0667" height="34.1333" fill="#C84032"/>
<rect x="85.3333" y="247.867" width="17.0667" height="34.1333" fill="#C84032"/>
<rect x="102.4" y="213.733" width="17.0667" height="34.1333" fill="#C84032"/>
<rect x="136.533" y="162.533" width="17.0667" height="34.1333" fill="#C84032"/>
<rect x="153.6" y="128.4" width="17.0667" height="34.1333" fill="#C84032"/>
<rect x="187.733" y="77.2" width="17.0667" height="34.1333" fill="#C84032"/>
<rect x="204.8" y="43.0667" width="17.0667" height="34.1333" fill="#C84032"/>
<rect y="384.4" width="17.0667" height="68.2667" fill="#C84032"/>
<rect width="17.0667" height="17.0667" transform="matrix(-1 0 0 1 494.933 452.667)" fill="#C84032"/>
<rect width="17.0667" height="17.0667" transform="matrix(-1 0 0 1 494.933 367.333)" fill="#C84032"/>
<rect width="17.0667" height="17.0667" transform="matrix(-1 0 0 1 443.733 282)" fill="#C84032"/>
<rect width="17.0667" height="17.0667" transform="matrix(-1 0 0 1 392.533 299.067)" fill="#C84032"/>
<rect width="17.0667" height="17.0667" transform="matrix(-1 0 0 1 324.267 179.6)" fill="#C84032"/>
<rect width="17.0667" height="17.0667" transform="matrix(-1 0 0 1 273.067 94.2666)" fill="#C84032"/>
<rect width="17.0667" height="17.0667" transform="matrix(-1 0 0 1 392.533 196.667)" fill="#C84032"/>
<rect width="17.0667" height="17.0667" transform="matrix(-1 0 0 1 341.333 111.333)" fill="#C84032"/>
<rect width="34.1333" height="17.0667" transform="matrix(-1 0 0 1 290.133 26)" fill="#C84032"/>
<rect width="17.0667" height="34.1333" transform="matrix(-1 0 0 1 477.867 333.2)" fill="#C84032"/>
<rect width="17.0667" height="34.1333" transform="matrix(-1 0 0 1 460.8 299.067)" fill="#C84032"/>
<rect width="17.0667" height="34.1333" transform="matrix(-1 0 0 1 426.667 247.867)" fill="#C84032"/>
<rect width="17.0667" height="34.1333" transform="matrix(-1 0 0 1 409.6 213.733)" fill="#C84032"/>
<rect width="17.0667" height="34.1333" transform="matrix(-1 0 0 1 375.467 162.533)" fill="#C84032"/>
<rect width="17.0667" height="34.1333" transform="matrix(-1 0 0 1 358.4 128.4)" fill="#C84032"/>
<rect width="17.0667" height="34.1333" transform="matrix(-1 0 0 1 324.267 77.2)" fill="#C84032"/>
<rect width="17.0667" height="34.1333" transform="matrix(-1 0 0 1 307.2 43.0667)" fill="#C84032"/>
<rect width="17.0667" height="68.2667" transform="matrix(-1 0 0 1 512 384.4)" fill="#C84032"/>
<rect width="17.0667" height="34.1333" transform="matrix(-1 0 0 1 443.733 384.4)" fill="#C84032"/>
<rect width="17.0667" height="34.1333" transform="matrix(-1 0 0 1 426.667 350.267)" fill="#C84032"/>
<rect width="17.0667" height="34.1333" transform="matrix(-1 0 0 1 409.6 316.133)" fill="#C84032"/>
<rect width="17.0667" height="34.1333" transform="matrix(-1 0 0 1 375.467 264.933)" fill="#C84032"/>
<rect width="17.0667" height="34.1333" transform="matrix(-1 0 0 1 358.4 230.8)" fill="#C84032"/>
<rect width="17.0667" height="34.1333" transform="matrix(-1 0 0 1 341.333 196.667)" fill="#C84032"/>
<rect width="17.0667" height="34.1333" transform="matrix(-1 0 0 1 307.2 145.467)" fill="#C84032"/>
<rect width="17.0667" height="34.1333" transform="matrix(-1 0 0 1 290.133 111.333)" fill="#C84032"/>
<rect x="102.4" y="333.2" width="17.0667" height="17.0667" fill="#C84032"/>
<rect x="170.667" y="213.733" width="17.0667" height="17.0667" fill="#C84032"/>
<rect x="238.933" y="94.2666" width="17.0667" height="17.0667" fill="#C84032"/>
<rect x="68.2666" y="384.4" width="17.0667" height="34.1333" fill="#C84032"/>
<rect x="85.3333" y="350.267" width="17.0667" height="34.1333" fill="#C84032"/>
<rect x="119.467" y="299.067" width="17.0667" height="34.1333" fill="#C84032"/>
<rect x="136.533" y="264.933" width="17.0667" height="34.1333" fill="#C84032"/>
<rect x="153.6" y="230.8" width="17.0667" height="34.1333" fill="#C84032"/>
<rect x="187.733" y="179.6" width="17.0667" height="34.1333" fill="#C84032"/>
<rect x="204.8" y="145.467" width="17.0667" height="34.1333" fill="#C84032"/>
<rect x="221.867" y="111.333" width="17.0667" height="34.1333" fill="#C84032"/>
<rect x="17.0667" y="384.4" width="51.2" height="34.1333" fill="#FA4032"/>
<rect x="51.2" y="333.2" width="34.1333" height="34.1333" fill="#FA4032"/>
<rect x="68.2666" y="299.067" width="34.1333" height="51.2" fill="#FA4032"/>
<rect x="102.4" y="247.867" width="34.1333" height="51.2" fill="#FA4032"/>
<rect x="119.467" y="213.733" width="34.1333" height="51.2" fill="#FA4032"/>
<rect x="136.533" y="196.667" width="34.1333" height="34.1333" fill="#FA4032"/>
<rect x="153.6" y="162.533" width="34.1333" height="51.2" fill="#FA4032"/>
<rect x="170.667" y="128.4" width="34.1333" height="51.2" fill="#FA4032"/>
<rect x="187.733" y="111.333" width="34.1333" height="34.1333" fill="#FA4032"/>
<rect x="204.8" y="77.2" width="34.1333" height="34.1333" fill="#FA4032"/>
<rect x="273.067" y="77.2" width="34.1333" height="34.1333" fill="#D9D9D9"/>
<rect x="221.867" y="43.0667" width="68.2667" height="51.2" fill="#FA4032"/>
<rect x="85.3333" y="282" width="34.1333" height="51.2" fill="#FA4032"/>
<rect x="34.1333" y="367.333" width="51.2" height="17.0667" fill="#FA4032"/>
<rect width="68.2667" height="34.1333" transform="matrix(-1 0 0 1 494.933 418.533)" fill="#FA4032"/>
<rect width="51.2" height="34.1333" transform="matrix(-1 0 0 1 494.933 384.4)" fill="#FA4032"/>
<rect width="34.1333" height="34.1333" transform="matrix(-1 0 0 1 460.8 333.2)" fill="#FA4032"/>
<rect width="34.1333" height="51.2" transform="matrix(-1 0 0 1 443.733 299.067)" fill="#FA4032"/>
<rect width="34.1333" height="51.2" transform="matrix(-1 0 0 1 409.6 247.867)" fill="#FA4032"/>
<rect width="34.1333" height="51.2" transform="matrix(-1 0 0 1 392.533 213.733)" fill="#FA4032"/>
<rect width="34.1333" height="34.1333" transform="matrix(-1 0 0 1 375.467 196.667)" fill="#FA4032"/>
<rect width="34.1333" height="34.1333" transform="matrix(-1 0 0 1 358.4 162.533)" fill="#FA4032"/>
<rect width="34.1333" height="51.2" transform="matrix(-1 0 0 1 341.333 128.4)" fill="#FA4032"/>
<rect width="34.1333" height="34.1333" transform="matrix(-1 0 0 1 324.267 111.333)" fill="#FA4032"/>
<rect width="34.1333" height="34.1333" transform="matrix(-1 0 0 1 307.2 77.2)" fill="#FA4032"/>
<rect width="34.1333" height="34.1333" transform="matrix(-1 0 0 1 426.667 282)" fill="#FA4032"/>
<rect width="51.2" height="17.0667" transform="matrix(-1 0 0 1 477.867 367.333)" fill="#FA4032"/>
</svg>
